<svg id="Capa_1" data-name="Capa 1" xmlns="http://www.w3.org/2000/svg" viewBox="0 0 153.2 153.2"><defs><style>.cls-1{fill:#d74933;}</style></defs><path class="cls-1" d="M386.78,389.2H375a58,58,0,0,0-50-50V327.43a7.42,7.42,0,0,0-14.83,0v11.75a58,58,0,0,0-50,50H248.41a7.42,7.42,0,0,0,0,14.83h11.75a58,58,0,0,0,50,50V465.8a7.42,7.42,0,1,0,14.83,0V454.05a58,58,0,0,0,50-50h11.75a7.42,7.42,0,1,0,0-14.83ZM325,439.08V428.53a7.42,7.42,0,0,0-14.83,0v10.55a43.19,43.19,0,0,1-35-35.05h10.53a7.42,7.42,0,0,0,0-14.83H275.14a43.19,43.19,0,0,1,35-35V364.7a7.42,7.42,0,0,0,14.83,0V354.16a43.21,43.21,0,0,1,35,35H349.51a7.42,7.42,0,0,0,0,14.83h10.54A43.21,43.21,0,0,1,325,439.08Z" transform="translate(-241 -320.02)"/></svg>