<svg id="Capa_1" data-name="Capa 1" xmlns="http://www.w3.org/2000/svg" viewBox="0 0 428.82 153.2"><defs><style>.cls-1{fill:#d74933;}.cls-2{fill:#fff;}</style></defs><path class="cls-1" d="M193,402.47H181.22a58,58,0,0,0-50-50V340.7a7.41,7.41,0,1,0-14.82,0v11.75a58,58,0,0,0-50,50H54.6a7.42,7.42,0,1,0,0,14.83H66.34a58,58,0,0,0,50,50v11.75a7.41,7.41,0,0,0,14.82,0V467.32a58,58,0,0,0,50-50H193a7.42,7.42,0,1,0,0-14.83Zm-61.77,49.87V441.8a7.41,7.41,0,1,0-14.82,0v10.54a43.2,43.2,0,0,1-35.05-35H91.85a7.42,7.42,0,1,0,0-14.83H81.32a43.2,43.2,0,0,1,35.05-35.05V378a7.41,7.41,0,0,0,14.82,0V367.42a43.21,43.21,0,0,1,35,35.05H155.7a7.42,7.42,0,1,0,0,14.83h10.53A43.21,43.21,0,0,1,131.19,452.34Z" transform="translate(-47.18 -333.28)"/><path class="cls-2" d="M335.34,356.58H250.06a21.39,21.39,0,0,0-21.32,21.32v85.28h21.32V420.55h85.28V399.23H250.06V377.9h85.28Z" transform="translate(-47.18 -333.28)"/><path class="cls-2" d="M476,356.58H390.72A21.39,21.39,0,0,0,369.4,377.9v64a21.39,21.39,0,0,0,21.32,21.32h64A21.38,21.38,0,0,0,476,441.86V399.23H412v21.32h42.65v21.31h-64v-64H476Z" transform="translate(-47.18 -333.28)"/></svg>