<svg id="Capa_1" data-name="Capa 1" xmlns="http://www.w3.org/2000/svg" xmlns:xlink="http://www.w3.org/1999/xlink" viewBox="0 0 384.48 65"><defs><style>.cls-1{fill:none;}.cls-2{fill:#fff;}.cls-3{clip-path:url(#clip-path);}.cls-4{fill:#d64833;}</style><clipPath id="clip-path" transform="translate(-54.34 -217.6)"><rect class="cls-1" x="54.34" y="217.6" width="65" height="65"/></clipPath></defs><path class="cls-2" d="M155.48,235H131.22a6.08,6.08,0,0,0-6.06,6.07V265.3h6.06V253.18h24.26v-6.06H131.22v-6.07h24.26Z" transform="translate(-54.34 -217.6)"/><path class="cls-2" d="M182.75,265.3a6.08,6.08,0,0,0,6.06-6.06V235h-6.06v24.26H164.56V235h-6.07v24.26a6.08,6.08,0,0,0,6.07,6.06Z" transform="translate(-54.34 -217.6)"/><path class="cls-2" d="M222.15,265.3v-6.06H197.89V235h-6.06v24.26a6.08,6.08,0,0,0,6.06,6.06Z" transform="translate(-54.34 -217.6)"/><path class="cls-2" d="M255.48,265.3v-6.06H231.23V235h-6.07v24.26a6.08,6.08,0,0,0,6.07,6.06Z" transform="translate(-54.34 -217.6)"/><path class="cls-2" d="M305.48,235H281.23a6.08,6.08,0,0,0-6.06,6.07v18.19a6.08,6.08,0,0,0,6.06,6.06h18.19a6.08,6.08,0,0,0,6.06-6.06V247.12H287.29v6.06h12.13v6.06H281.23V241.05h24.25Z" transform="translate(-54.34 -217.6)"/><path class="cls-2" d="M314.56,235a6.08,6.08,0,0,0-6.06,6.07V265.3h6.06V253.18h18.2V265.3h6.06V241.05a6.08,6.08,0,0,0-6.06-6.07Zm0,6.07h18.2v6.07h-18.2Z" transform="translate(-54.34 -217.6)"/><path class="cls-2" d="M347.9,235a6.09,6.09,0,0,0-6.07,6.07V265.3h6.07V241.05H354V265.3H360V241.05h6.07V265.3h6.06V241.05a6.08,6.08,0,0,0-6.06-6.07Z" transform="translate(-54.34 -217.6)"/><path class="cls-2" d="M405.49,235H381.23a6.08,6.08,0,0,0-6.06,6.07v18.19a6.08,6.08,0,0,0,6.06,6.06h24.26v-6.06H381.23v-6.06h24.26v-6.06H381.23v-6.07h24.26Z" transform="translate(-54.34 -217.6)"/><path class="cls-2" d="M438.82,235H414.57a6.09,6.09,0,0,0-6.07,6.07v6.07a6.08,6.08,0,0,0,6.07,6.06h18.19v6.06H408.5v6.06h24.26a6.08,6.08,0,0,0,6.06-6.06v-6.06a6.08,6.08,0,0,0-6.06-6.06H414.57v-6.07h24.25Z" transform="translate(-54.34 -217.6)"/><g class="cls-3"><path class="cls-4" d="M116.2,247h-5A24.62,24.62,0,0,0,90,225.73v-5a3.15,3.15,0,1,0-6.29,0v5A24.62,24.62,0,0,0,62.47,247h-5a3.15,3.15,0,1,0,0,6.29h5A24.61,24.61,0,0,0,83.7,274.47v5a3.15,3.15,0,0,0,6.29,0v-5a24.61,24.61,0,0,0,21.22-21.22h5a3.15,3.15,0,0,0,0-6.29ZM90,268.12v-4.47a3.15,3.15,0,1,0-6.29,0v4.47a18.32,18.32,0,0,1-14.87-14.87H73.3a3.15,3.15,0,0,0,0-6.29H68.83A18.32,18.32,0,0,1,83.7,232.09v4.47a3.15,3.15,0,0,0,6.29,0v-4.47A18.31,18.31,0,0,1,104.85,247h-4.46a3.15,3.15,0,1,0,0,6.29h4.46A18.31,18.31,0,0,1,90,268.12Z" transform="translate(-54.34 -217.6)"/></g></svg>